<svg xmlns="http://www.w3.org/2000/svg" width="60" height="60" viewBox="0 0 60 60">
    <defs>
        <clipPath id="clip-path">
            <path id="Rectangle_1" d="M0 0h155.314v60H0z" fill="none" data-name="Rectangle 1"></path>
        </clipPath>
    </defs>
    <g id="logo" transform="translate(-1305 -780.355)">
        <g id="Group_2" clip-path="url(#clip-path)" data-name="Group 2" transform="translate(1305 780.355)">
            <g id="Group_1" data-name="Group 1" transform="translate(.486 .486)">
                <path id="Path_1"
                      d="M1307.562 880.867l28.187-28.893a.521.521 0 0 0 .063-.666c-1.714-2.393-4.877-2.808-6.049-4.416-3.472-4.763-4.353-7.459-5.845-7.292a.456.456 0 0 0-.271.143l-10.182 10.438c-5.858 6-6.7 19.225-6.852 30.3a.552.552 0 0 0 .949.386z"
                      fill="#017cee" data-name="Path 1" transform="translate(-1306.613 -822.232)"></path>
                <path id="Path_2"
                      d="M1405.512 908.489l-28.893-28.189a.521.521 0 0 0-.667-.063c-2.393 1.715-2.808 4.877-4.416 6.049-4.763 3.472-7.459 4.353-7.292 5.845a.456.456 0 0 0 .143.27l10.438 10.182c6 5.858 19.225 6.7 30.3 6.852a.552.552 0 0 0 .387-.946z"
                      fill="#00ad46" data-name="Path 2" transform="translate(-1346.876 -850.567)"></path>
                <path id="Path_3"
                      d="M1373.909 902.252c-3.28-3.2-4.8-9.53 1.486-22.583-10.219 4.567-13.8 10.57-12.039 12.289z"
                      fill="#04d659" data-name="Path 3" transform="translate(-1345.96 -850.233)"></path>
                <path id="Path_4"
                      d="M1433.132 782.359l-28.186 28.893a.52.52 0 0 0-.063.666c1.715 2.393 4.876 2.808 6.049 4.416 3.472 4.763 4.354 7.459 5.845 7.292a.454.454 0 0 0 .271-.143l10.182-10.438c5.858-6 6.7-19.225 6.852-30.3a.553.553 0 0 0-.95-.386z"
                      fill="#00c7d4" data-name="Path 4" transform="translate(-1375.21 -782.123)"></path>
                <path id="Path_5"
                      d="M1426.9 881.155c-3.2 3.28-9.53 4.8-22.584-1.486 4.567 10.219 10.57 13.8 12.289 12.039z"
                      fill="#11e1ee" data-name="Path 5" transform="translate(-1374.875 -850.233)"></path>
                <path id="Path_6"
                      d="M1307 782.919l28.893 28.186a.521.521 0 0 0 .666.063c2.393-1.715 2.808-4.877 4.416-6.049 4.763-3.472 7.459-4.353 7.292-5.845a.459.459 0 0 0-.143-.271l-10.438-10.182c-6-5.858-19.225-6.7-30.3-6.852a.552.552 0 0 0-.386.95z"
                      fill="#e43921" data-name="Path 6" transform="translate(-1306.766 -781.97)"></path>
                <path id="Path_7"
                      d="M1405.8 804.711c3.28 3.2 4.8 9.53-1.486 22.584 10.219-4.567 13.8-10.571 12.039-12.289z"
                      fill-rule="evenodd" fill="#ff7557" data-name="Path 7"
                      transform="translate(-1374.875 -797.859)"></path>
                <path id="Path_8"
                      d="M1329.355 849.266c3.2-3.28 9.53-4.8 22.584 1.486-4.567-10.219-10.57-13.8-12.289-12.039z"
                      fill="#0cb6ff" data-name="Path 8" transform="translate(-1322.503 -821.316)"></path>
                <circle id="Ellipse_1" cx="1.26" cy="1.26" r="1.26" fill="#4a4848" data-name="Ellipse 1"
                        transform="translate(28.18 28.171)"></circle>
            </g>
        </g>
    </g>
</svg>