<?xml version="1.0" encoding="UTF-8" standalone="no"?>
<svg
   width="189"
   height="224"
   viewBox="0 0 189 224"
   fill="none"
   version="1.1"
   id="svg57"
   sodipodi:docname="knorten.svg"
   inkscape:export-filename="knorten.png"
   inkscape:export-xdpi="96"
   inkscape:export-ydpi="96"
   inkscape:version="1.2.2 (b0a84865, 2022-12-01)"
   xmlns:inkscape="http://www.inkscape.org/namespaces/inkscape"
   xmlns:sodipodi="http://sodipodi.sourceforge.net/DTD/sodipodi-0.dtd"
   xmlns="http://www.w3.org/2000/svg"
   xmlns:svg="http://www.w3.org/2000/svg">
  <defs
     id="defs61" />
  <sodipodi:namedview
     id="namedview59"
     pagecolor="#ffffff"
     bordercolor="#666666"
     borderopacity="1.0"
     inkscape:showpageshadow="2"
     inkscape:pageopacity="0.0"
     inkscape:pagecheckerboard="0"
     inkscape:deskcolor="#d1d1d1"
     showgrid="false"
     inkscape:zoom="2.97995"
     inkscape:cx="54.531116"
     inkscape:cy="95.4714"
     inkscape:window-width="1920"
     inkscape:window-height="1147"
     inkscape:window-x="0"
     inkscape:window-y="1007"
     inkscape:window-maximized="1"
     inkscape:current-layer="svg57" />
  <path
     d="M74.0077 196.5C73.5077 183 97.5076 172 97.5076 172C97.5076 172 122.008 185.5 121.508 198C121.008 210.5 114.008 218 97.5076 218C81.0076 218 74.5077 210 74.0077 196.5Z"
     fill="#BA3013"
     stroke="black"
     stroke-width="5"
     stroke-linecap="round"
     id="path9"
     style="fill:#750787;fill-opacity:1" />
  <mask
     id="mask0_2957_144342"
     style="mask-type:alpha"
     maskUnits="userSpaceOnUse"
     x="71"
     y="169"
     width="54"
     height="52">
    <path
       d="M74.0077 196.5C73.5077 183 97.5076 172 97.5076 172C97.5076 172 122.008 185.5 121.508 198C121.008 210.5 114.008 218 97.5076 218C81.0076 218 74.5077 210 74.0077 196.5Z"
       fill="#BA3013"
       stroke="black"
       stroke-width="5"
       stroke-linecap="round"
       id="path11" />
  </mask>
  <g
     mask="url(#mask0_2957_144342)"
     id="g16">
    <path
       d="M55.0032 180.209C54.5819 161.374 95.8634 147 95.8634 147C95.8634 147 138.83 165.339 137.988 181.696C137.145 198.052 130.405 204 117.347 204C104.288 204 95.8634 195 95.8634 195C95.8634 195 88.7023 204 77.3292 204C65.956 204 55.4245 199.043 55.0032 180.209Z"
       fill="black"
       fill-opacity="0.2"
       id="path14" />
  </g>
  <path
     d="M55.0032 173.209C54.5819 154.374 95.8634 140 95.8634 140C95.8634 140 138.83 158.339 137.988 174.696C137.145 191.052 130.405 197 117.347 197C104.288 197 95.8634 188 95.8634 188C95.8634 188 88.7023 197 77.3292 197C65.956 197 55.4245 192.043 55.0032 173.209Z"
     fill="#E0891E"
     stroke="black"
     stroke-width="5"
     stroke-linecap="round"
     id="path18"
     style="fill:#004dff;fill-opacity:1" />
  <mask
     id="mask1_2957_144342"
     style="mask-type:alpha"
     maskUnits="userSpaceOnUse"
     x="52"
     y="137"
     width="89"
     height="63">
    <path
       d="M55.0032 173.209C54.5819 154.374 95.8634 140 95.8634 140C95.8634 140 138.83 158.339 137.988 174.696C137.145 191.052 130.405 197 117.347 197C104.288 197 95.8634 188 95.8634 188C95.8634 188 88.7023 197 77.3292 197C65.956 197 55.4245 192.043 55.0032 173.209Z"
       fill="#E0891E"
       stroke="black"
       stroke-width="5"
       stroke-linecap="round"
       id="path20" />
  </mask>
  <g
     mask="url(#mask1_2957_144342)"
     id="g25">
    <path
       d="M29 155.317C29 137.695 41.9965 111.511 93.5349 111.007C145.073 110.504 163 135.678 163 155.317C163 174.956 154.037 181 140.592 181C127.147 181 118.184 166.899 118.184 166.899C118.184 166.899 114.599 181 96.672 181C78.7454 181 72.9195 165.39 72.9195 165.39C72.9195 165.39 65.301 179.991 52.3044 179.991C39.3077 179.991 29 172.939 29 155.317Z"
       fill="black"
       fill-opacity="0.2"
       id="path23" />
  </g>
  <path
     d="M29 148.317C29 130.695 41.9965 104.511 93.5349 104.007C145.073 103.504 163 128.678 163 148.317C163 167.956 154.037 174 140.592 174C127.147 174 118.184 159.899 118.184 159.899C118.184 159.899 114.599 174 96.672 174C78.7454 174 72.9195 158.39 72.9195 158.39C72.9195 158.39 65.301 172.991 52.3044 172.991C39.3077 172.991 29 165.939 29 148.317Z"
     fill="#F9EB2D"
     stroke="black"
     stroke-width="5"
     stroke-linecap="round"
     id="path27"
     style="fill:#008026;fill-opacity:1" />
  <mask
     id="mask2_2957_144342"
     style="mask-type:alpha"
     maskUnits="userSpaceOnUse"
     x="26"
     y="101"
     width="140"
     height="76">
    <path
       d="M29 148.317C29 130.695 41.9965 104.511 93.5349 104.007C145.073 103.504 163 128.678 163 148.317C163 167.956 154.037 174 140.592 174C127.147 174 118.184 159.899 118.184 159.899C118.184 159.899 114.599 174 96.672 174C78.7454 174 72.9195 158.39 72.9195 158.39C72.9195 158.39 65.301 172.991 52.3044 172.991C39.3077 172.991 29 165.939 29 148.317Z"
       fill="#F9EB2D"
       stroke="black"
       stroke-width="5"
       stroke-linecap="round"
       id="path29" />
  </mask>
  <g
     mask="url(#mask2_2957_144342)"
     id="g34">
    <path
       d="M15.0033 130.41C15.0034 112.941 13.1966 77.5038 93.5983 77.0046C174 76.5055 174 116.435 174 130.411C174 144.386 166.321 151.373 155.932 152.87C145.543 154.368 131.541 142.389 131.541 142.389C131.541 142.389 127.927 152.87 115.28 152.87C102.632 152.87 93.5983 142.389 93.5983 142.389C93.5983 142.389 85.9194 152.87 75.0788 152.87C64.2382 152.87 53.8492 142.389 53.8492 142.389C53.8492 142.389 44.8152 152.87 34.8779 152.87C24.9406 152.87 15.0033 147.879 15.0033 130.41Z"
       fill="black"
       fill-opacity="0.2"
       id="path32" />
  </g>
  <path
     d="M15.0033 123.41C15.0034 105.941 13.1966 70.5038 93.5983 70.0046C174 69.5055 174 109.435 174 123.411C174 137.386 166.321 144.373 155.932 145.87C145.543 147.368 131.541 135.389 131.541 135.389C131.541 135.389 127.927 145.87 115.28 145.87C102.632 145.87 93.5983 135.389 93.5983 135.389C93.5983 135.389 85.9194 145.87 75.0788 145.87C64.2382 145.87 53.8492 135.389 53.8492 135.389C53.8492 135.389 44.8152 145.87 34.8779 145.87C24.9406 145.87 15.0033 140.879 15.0033 123.41Z"
     fill="#3F7227"
     stroke="black"
     stroke-width="5"
     id="path36"
     style="fill:#f9eb2d;fill-opacity:1" />
  <path
     d="M78.5036 19.5C78.5037 25.5 93.5036 50 93.5036 50C93.5036 50 111.004 28 111.004 19.5C111.003 11 109.004 6.00001 93.5036 6C78.0034 5.99999 78.5034 13.5 78.5036 19.5Z"
     fill="#58187A"
     stroke="black"
     stroke-width="5"
     stroke-linecap="round"
     id="path38"
     style="fill:#e40303;fill-opacity:1" />
  <mask
     id="mask3_2957_144342"
     style="mask-type:alpha"
     maskUnits="userSpaceOnUse"
     x="12"
     y="67"
     width="165"
     height="82">
    <path
       d="M15.0033 123.41C15.0034 105.941 13.1966 70.5038 93.5983 70.0046C174 69.5055 174 109.435 174 123.411C174 137.386 166.321 144.373 155.932 145.87C145.543 147.368 131.541 135.389 131.541 135.389C131.541 135.389 127.927 145.87 115.28 145.87C102.632 145.87 93.5983 135.389 93.5983 135.389C93.5983 135.389 85.9194 145.87 75.0788 145.87C64.2382 145.87 53.8492 135.389 53.8492 135.389C53.8492 135.389 44.8152 145.87 34.8779 145.87C24.9406 145.87 15.0033 140.879 15.0033 123.41Z"
       fill="#3F7227"
       stroke="black"
       stroke-width="5"
       id="path40" />
  </mask>
  <g
     mask="url(#mask3_2957_144342)"
     id="g45">
    <path
       d="M7.0037 101C7.00373 83.5004 5.00375 48.0004 94.0038 47.5004C183.004 47.0004 183.004 87.001 183.004 101.001C183.004 109.408 180.5 126 167.5 126C154.5 126 148.5 117 148.5 117C148.5 117 145.5 126 133.5 126C121.5 126 116 117 116 117C116 117 110 126 96 126C82.0001 126 73 117 73 117C73 117 67.9999 124 56 124C44.0001 124 39.5 115.5 39.5 115.5C39.5 115.5 35.5 122.5 24.5 122.5C13.5 122.5 7.00366 118.5 7.0037 101Z"
       fill="black"
       fill-opacity="0.2"
       id="path43" />
  </g>
  <path
     d="M7.0037 93.0004C7.00373 75.5004 5.00375 40.0004 94.0038 39.5004C183.004 39.0004 183.004 79.001 183.004 93.001C183.004 101.408 180.5 118 167.5 118C154.5 118 148.5 109 148.5 109C148.5 109 145.5 118 133.5 118C121.5 118 116 109 116 109C116 109 110 118 96 118C82.0001 118 73 109 73 109C73 109 67.9999 116 56 116C44.0001 116 39.5 107.5 39.5 107.5C39.5 107.5 35.5 114.5 24.5 114.5C13.5 114.5 7.00366 110.5 7.0037 93.0004Z"
     fill="#2641FA"
     stroke="black"
     stroke-width="5"
     id="path47"
     style="fill:#ff8c00;fill-opacity:1" />
  <path
     d="M82 83C82 83 86.4255 90 95.2766 90C104.128 90 108 83 108 83"
     stroke="black"
     stroke-width="7"
     stroke-linecap="round"
     id="path49" />
  <path
     d="M85.0037 13C84.0037 16 85.5037 19.5 85.5037 19.5C85.5037 19.5 84.5037 15.3589 87.0037 13C89.5037 10.6411 93.5037 10.5 93.5037 10.5C93.5037 10.5 86.0037 10 85.0037 13Z"
     fill="white"
     id="path51" />
  <ellipse
     cx="67"
     cy="72"
     rx="4"
     ry="8"
     fill="black"
     id="ellipse53" />
  <ellipse
     cx="122"
     cy="72"
     rx="4"
     ry="8"
     fill="black"
     id="ellipse55" />
</svg>
